<?xml version="1.0" standalone="no"?>
<!DOCTYPE svg PUBLIC "-//W3C//DTD SVG 20010904//EN"
 "http://www.w3.org/TR/2001/REC-SVG-20010904/DTD/svg10.dtd">
<svg version="1.0" xmlns="http://www.w3.org/2000/svg"
 width="260.000000pt" height="260.000000pt" viewBox="0 0 260.000000 260.000000"
 preserveAspectRatio="xMidYMid meet">
<metadata>
Created by potrace 1.11, written by Peter Selinger 2001-2013
</metadata>
<g transform="translate(0.000000,260.000000) scale(0.100000,-0.100000)"
fill="#000000" stroke="none">
<path d="M1131 2590 c-556 -78 -987 -483 -1107 -1041 -26 -118 -26 -380 0
-498 59 -273 167 -474 360 -667 193 -193 394 -301 667 -360 118 -26 380 -26
498 0 273 59 474 167 667 360 193 193 301 394 360 667 14 62 18 127 18 249 0
122 -4 187 -18 249 -59 273 -167 474 -360 667 -190 189 -384 296 -646 355 -99
23 -340 33 -439 19z m-81 -1075 l0 -55 -80 0 -80 0 0 -220 0 -220 -70 0 -70 0
0 220 0 220 -80 0 -80 0 0 55 0 55 230 0 230 0 0 -55z m1000 -275 l0 -60 -390
0 -390 0 0 60 0 60 390 0 390 0 0 -60z"/>
</g>
</svg>
